<?xml version="1.0" standalone="no"?>
<!DOCTYPE svg PUBLIC "-//W3C//DTD SVG 20010904//EN"
 "http://www.w3.org/TR/2001/REC-SVG-20010904/DTD/svg10.dtd">
<svg version="1.0" xmlns="http://www.w3.org/2000/svg"
 width="400.000000pt" height="400.000000pt" viewBox="0 0 400.000000 400.000000"
 preserveAspectRatio="xMidYMid meet">
<metadata>
Created by potrace 1.11, written by Peter Selinger 2001-2013
</metadata>
<g transform="translate(0.000000,400.000000) scale(0.100000,-0.100000)"
fill="#000000" stroke="none">
<path d="M1845 3985 c-177 -34 -335 -118 -505 -269 -130 -115 -1065 -1063
-1121 -1136 -158 -206 -212 -351 -213 -570 -1 -117 1 -139 19 -215 28 -120
106 -268 207 -393 82 -102 1071 -1091 1172 -1172 122 -98 285 -184 391 -204
17 -4 41 -9 55 -12 65 -13 195 -16 270 -5 187 28 345 107 527 264 71 62 1007
996 1073 1072 192 218 272 405 274 635 2 253 -56 410 -235 627 -100 122 -1052
1073 -1159 1159 -150 120 -247 171 -400 210 -82 21 -271 26 -355 9z m290 -310
c89 -23 151 -55 240 -122 76 -58 1071 -1045 1151 -1143 114 -138 166 -267 165
-411 -1 -178 -71 -316 -261 -513 -159 -165 -885 -890 -965 -963 -157 -145
-278 -202 -440 -210 -193 -10 -326 54 -535 254 -178 171 -987 985 -1021 1028
-194 244 -213 497 -57 732 63 93 125 158 698 729 440 440 538 527 642 578 115
55 265 71 383 41z"/>
<path d="M1889 3375 c-24 -7 -63 -22 -87 -34 -64 -33 -1143 -1115 -1176 -1179
-31 -61 -44 -133 -35 -200 15 -113 18 -117 621 -718 354 -353 576 -567 598
-577 104 -45 201 -46 294 -4 65 30 259 211 308 287 16 25 30 43 32 40 4 -6 73
62 74 73 0 4 3 13 5 20 4 9 6 9 6 -1 1 -7 18 4 40 25 25 25 34 41 27 45 -10 7
-3 10 19 8 9 -1 80 73 78 80 -1 4 9 13 22 20 14 7 25 17 25 22 0 12 -23 5 -38
-12 -8 -8 -11 -10 -8 -3 9 16 -4 44 -17 36 -6 -4 -7 -1 -2 8 7 11 5 11 -10 -1
-13 -10 -16 -11 -11 -2 6 10 -1 9 -24 -3 -21 -11 -30 -21 -26 -31 4 -9 2 -12
-5 -8 -6 3 -3 -6 7 -22 13 -18 14 -25 5 -20 -10 7 -12 5 -6 -4 5 -9 4 -11 -3
-6 -8 5 -10 1 -6 -11 5 -15 4 -15 -4 -3 -8 10 -8 18 0 27 19 23 4 20 -19 -4
-12 -13 -17 -23 -12 -23 6 0 3 -8 -8 -17 -10 -10 -13 -14 -6 -9 8 5 16 6 20 2
3 -3 1 -6 -6 -6 -7 0 -9 -5 -5 -11 5 -8 9 -8 14 1 5 8 9 7 13 -5 4 -9 3 -14
-3 -10 -6 4 -9 1 -8 -7 2 -7 -3 -12 -10 -10 -8 1 -11 -2 -6 -9 5 -8 3 -9 -6
-4 -9 6 -11 4 -5 -5 6 -9 4 -11 -5 -5 -9 5 -11 4 -6 -3 5 -8 2 -10 -8 -6 -11
4 -16 0 -16 -10 0 -20 -16 -21 -18 -1 -1 8 -3 22 -4 30 -1 8 -6 15 -11 15 -5
0 -6 -7 -3 -16 4 -10 2 -13 -7 -9 -6 4 -3 -1 8 -11 17 -14 18 -16 2 -10 -12 4
-16 2 -11 -6 5 -7 3 -8 -6 -3 -9 5 -11 4 -6 -3 4 -8 2 -10 -7 -6 -8 3 -18 1
-22 -5 -3 -6 0 -9 8 -5 8 3 20 -2 27 -11 7 -8 8 -15 3 -15 -5 0 -18 -7 -29
-15 -16 -13 -16 -14 -1 -9 10 4 17 1 17 -7 0 -7 -3 -9 -7 -6 -3 4 -13 1 -21
-6 -9 -6 -13 -7 -9 -1 3 6 -9 26 -29 45 -19 18 -32 39 -30 46 3 7 1 13 -4 13
-6 0 -10 -4 -10 -9 0 -5 -34 26 -76 69 -42 43 -73 83 -69 89 3 6 1 11 -4 11
-6 0 -11 -4 -11 -9 0 -5 -15 5 -32 22 -30 29 -31 34 -18 48 8 8 22 14 30 11
13 -3 13 -3 0 8 -13 10 -12 11 3 6 11 -4 16 -2 11 5 -3 6 3 5 14 -2 12 -7 19
-16 16 -20 -2 -4 1 -11 7 -15 8 -5 9 -3 4 7 -7 12 -6 12 7 1 9 -7 15 -22 13
-32 -4 -22 27 -21 33 1 3 11 2 12 -6 1 -7 -11 -10 -9 -15 7 -3 14 -1 19 6 14
7 -4 5 2 -3 12 -13 17 -13 18 0 11 8 -4 6 0 -4 8 -11 9 -14 16 -7 16 7 0 10 4
6 9 -3 5 -1 12 5 16 6 4 8 11 4 16 -3 5 -10 7 -15 4 -5 -4 -9 -1 -9 5 0 7 7 9
18 5 12 -4 14 -3 6 5 -15 15 -52 21 -59 9 -4 -5 1 -9 9 -9 9 0 16 -5 16 -10 0
-6 -5 -9 -12 -8 -7 2 -13 -3 -14 -9 -1 -7 -2 -17 -3 -22 -2 -17 -43 -5 -62 19
-11 14 -18 18 -17 10 2 -8 10 -21 18 -28 8 -8 10 -11 3 -8 -15 8 -27 -10 -13
-19 16 -10 12 -26 -6 -23 -19 3 -125 110 -118 118 3 2 8 -1 12 -7 5 -9 12 -6
21 8 9 16 9 19 0 14 -8 -5 -10 -4 -5 4 6 9 11 9 21 1 10 -8 15 -8 21 1 4 8 3
9 -4 5 -7 -4 -12 -2 -12 4 0 7 9 9 23 5 12 -3 17 -3 11 2 -8 6 -5 14 7 27 21
21 27 8 7 -13 -11 -11 -10 -12 1 -6 10 6 12 4 6 -5 -6 -9 -4 -11 4 -6 7 5 10
10 7 14 -3 3 2 11 12 19 9 8 12 12 7 9 -6 -2 -11 4 -11 14 0 14 4 16 18 9 10
-6 19 -5 23 1 6 9 -7 14 -27 11 -4 0 -4 7 -1 16 4 11 8 13 11 5 4 -13 23 -17
21 -4 -4 24 2 34 18 28 11 -5 23 1 34 16 15 20 19 20 35 8 10 -8 15 -10 11 -3
-4 6 -2 15 4 19 8 4 9 3 5 -4 -4 -7 -2 -12 3 -12 15 0 14 11 -5 32 -15 16 -15
18 0 24 9 3 13 10 10 15 -3 5 -10 6 -16 3 -7 -4 -8 -2 -4 5 4 6 12 9 17 6 5
-4 9 -1 9 5 0 7 8 9 20 5 12 -4 20 -2 20 5 0 6 -4 9 -8 6 -5 -3 -9 2 -9 11 0
12 6 9 23 -10 13 -15 26 -22 29 -17 3 6 1 10 -6 10 -7 0 -9 3 -6 7 4 3 1 13
-6 21 -10 13 -9 14 2 7 10 -6 12 -4 6 6 -5 8 -5 11 0 7 4 -4 14 -3 22 3 8 7
13 8 13 1 0 -5 -7 -12 -15 -16 -8 -3 -12 -12 -9 -21 3 -8 10 -12 15 -9 5 3 7
9 4 14 -3 5 0 12 6 16 8 4 9 3 5 -5 -5 -7 -2 -10 5 -9 7 2 14 -3 15 -9 3 -27
5 -28 14 -13 5 8 10 11 10 5 -1 -19 -28 -47 -32 -34 -3 10 -6 10 -12 1 -4 -7
-2 -12 4 -12 6 0 9 -4 6 -9 -3 -5 1 -14 8 -20 10 -8 16 -9 21 -1 3 5 3 10 -1
10 -4 0 1 6 11 14 11 8 25 11 33 8 11 -4 11 -6 0 -14 -10 -7 -8 -8 5 -4 10 3
15 2 12 -3 -3 -5 -1 -12 5 -16 5 -3 10 0 10 7 0 7 -20 31 -45 54 -24 23 -41
45 -37 49 4 5 2 5 -5 1 -6 -3 -16 1 -21 11 -16 28 -60 24 -86 -8 -13 -15 -27
-25 -31 -21 -5 4 -5 1 -1 -5 4 -8 1 -13 -7 -13 -17 0 -31 -27 -28 -50 2 -12 0
-13 -10 -2 -11 10 -18 6 -41 -19 -15 -16 -28 -35 -28 -40 0 -6 -5 -7 -12 -3
-6 4 -9 3 -6 -2 5 -9 -26 -44 -39 -44 -5 0 -9 -4 -9 -10 -1 -5 -2 -16 -3 -22
-1 -10 -3 -10 -9 0 -6 9 -12 6 -22 -12 -7 -14 -18 -23 -23 -19 -6 3 -7 1 -3
-5 4 -7 1 -12 -8 -12 -9 0 -16 -4 -16 -10 0 -5 -10 -14 -21 -21 -20 -10 -44
12 -305 272 -155 155 -284 290 -287 299 -2 8 -1 25 3 35 11 29 499 515 518
516 9 1 24 0 32 -1 8 -1 89 -76 179 -166 134 -133 170 -164 193 -164 23 0 65
37 238 210 172 172 210 215 210 238 0 23 -54 81 -312 339 -242 241 -324 317
-360 333 -64 28 -162 39 -219 25z m453 -1617 c-9 -9 -9 -15 1 -27 11 -14 10
-14 -6 -2 -13 10 -15 17 -6 27 6 8 14 14 17 14 3 0 1 -5 -6 -12z m102 -85
c-10 -8 -18 -19 -16 -24 1 -6 -2 -8 -8 -4 -6 4 -4 15 6 30 9 14 21 22 27 18 6
-4 3 -12 -9 -20z m-191 -28 c4 0 6 -4 5 -10 -1 -5 -8 -9 -14 -7 -7 1 -19 -7
-27 -19 -9 -12 -20 -18 -26 -15 -7 5 -3 17 11 36 12 16 26 26 32 22 6 -4 14
-7 19 -7z m-18 -279 c-10 -14 -11 -25 -4 -40 10 -20 9 -20 -9 1 -11 12 -23 19
-27 15 -4 -4 -3 3 3 14 6 12 9 23 7 26 -2 2 6 4 19 4 22 0 23 -2 11 -20z m-85
-22 c0 -8 -19 -13 -24 -6 -3 5 1 9 9 9 8 0 15 -2 15 -3z m531 -53 c4 -1 6 -14
5 -31 -1 -28 -8 -35 -30 -31 -5 1 -6 -5 -3 -13 6 -16 -25 -41 -37 -29 -3 3 -6
1 -6 -5 0 -15 -27 -15 -36 0 -5 8 -2 9 9 5 17 -6 44 28 38 48 -15 49 -4 68 34
60 11 -2 23 -4 26 -4z m-187 -230 c3 -4 -2 -17 -10 -27 -9 -10 -13 -14 -10 -7
4 6 2 14 -4 18 -11 7 -4 25 10 25 5 0 11 -4 14 -9z"/>
<path d="M2206 1622 l-19 -27 24 22 c12 12 21 24 18 27 -2 2 -13 -8 -23 -22z"/>
<path d="M2215 1369 c-4 -6 -5 -12 -2 -15 2 -3 7 2 10 11 7 17 1 20 -8 4z"/>
<path d="M2629 1287 c-10 -31 3 -69 18 -54 4 5 1 12 -7 17 -9 6 -10 10 -3 10
7 0 17 -8 22 -17 6 -11 11 -13 12 -5 5 39 2 45 -18 48 -13 2 -23 3 -24 1z m38
-24 c0 -10 -4 -10 -16 -1 -9 7 -18 13 -20 15 -2 1 5 1 16 0 11 0 20 -7 20 -14z"/>
<path d="M2625 1209 c-4 -6 -4 -13 -1 -16 3 -4 6 -1 6 6 0 7 5 9 12 5 7 -4 8
-3 4 4 -9 15 -13 15 -21 1z"/>
<path d="M2956 2303 c-277 -83 -312 -462 -56 -593 55 -28 81 -33 157 -32 138
1 262 99 297 234 34 134 -14 267 -126 348 -72 52 -183 70 -272 43z"/>
<path d="M2380 1705 c-13 -14 -28 -21 -34 -17 -17 12 -51 7 -48 -6 1 -7 -5
-15 -13 -18 -13 -5 -12 -9 5 -24 12 -10 17 -21 11 -24 -15 -10 -9 -47 7 -41 7
3 16 5 20 5 3 0 -3 7 -14 15 -19 15 -19 15 1 9 15 -4 16 -3 6 4 -11 8 -11 10
0 15 11 4 11 6 -1 6 -13 1 -13 3 0 12 13 10 13 10 0 6 -11 -3 -16 2 -16 18 0
13 4 21 8 19 5 -3 6 -10 3 -15 -8 -12 8 -12 21 1 7 7 17 5 30 -5 19 -15 19
-15 -1 -9 -11 3 -16 2 -10 -3 14 -11 17 -33 5 -33 -5 0 -10 7 -10 16 0 8 -5
12 -11 8 -17 -10 16 -37 48 -39 16 -1 34 -4 40 -8 6 -4 14 -3 18 3 3 5 0 10
-7 10 -10 0 -9 3 2 9 8 6 18 7 24 4 5 -3 6 -1 2 5 -5 8 -1 10 10 5 15 -5 15
-7 0 -15 -9 -5 -14 -14 -10 -20 4 -7 10 -5 16 3 7 10 8 9 4 -6 -5 -17 -3 -16
13 4 l19 24 -3 -26 c-2 -15 1 -27 7 -27 6 0 7 7 4 16 -3 8 -1 24 4 34 7 13 7
21 -2 26 -6 4 -8 3 -4 -4 3 -5 0 -12 -6 -15 -18 -6 -59 23 -51 36 3 6 1 7 -5
3 -7 -4 -12 -13 -12 -21 0 -25 -29 -24 -50 2 -15 20 -17 29 -9 39 6 8 16 11
23 7 7 -4 6 -1 -1 9 -7 8 -10 18 -6 21 3 4 4 7 1 7 -2 0 -15 -11 -28 -25z m20
1 c0 -2 -8 -10 -17 -17 -16 -13 -17 -12 -4 4 13 16 21 21 21 13z m10 -87 c0
-4 -8 -7 -19 -6 -11 1 -17 7 -16 17 2 8 4 17 4 19 2 7 31 -21 31 -30z"/>
<path d="M2335 1602 c2 -14 -5 -26 -21 -37 -13 -8 -25 -11 -25 -5 -1 5 -2 16
-3 23 0 6 -5 12 -11 12 -5 0 -16 4 -23 9 -9 5 -19 1 -29 -13 -8 -12 -22 -20
-31 -19 -11 2 -17 -4 -17 -17 0 -28 -14 -47 -28 -39 -7 4 -9 4 -5 -1 8 -9 -31
-69 -39 -61 -3 3 -15 0 -27 -6 -11 -7 -24 -11 -28 -10 -4 1 -12 -7 -17 -17 -9
-16 -3 -26 34 -60 44 -40 66 -54 49 -28 -14 18 -11 70 4 74 6 3 12 0 12 -6 0
-6 4 -11 8 -11 5 0 9 6 9 14 0 9 -9 13 -26 11 -22 -2 -23 -1 -8 10 19 14 24
30 5 19 -7 -4 -8 -3 -4 4 4 6 13 9 21 6 10 -4 13 0 10 13 -2 12 2 20 10 20 8
0 11 -5 8 -10 -4 -6 -1 -7 7 -2 9 6 11 4 5 -6 -6 -11 -5 -12 5 -2 12 11 11 15
-6 28 -10 8 -14 15 -8 15 5 0 16 -6 23 -12 11 -11 12 -10 6 1 -5 9 -4 12 2 8
5 -3 10 0 10 8 0 18 -14 20 -20 3 -2 -7 -4 1 -3 19 0 17 4 29 9 26 4 -2 4 -9
1 -15 -4 -6 -1 -8 7 -6 8 3 13 11 11 18 -3 11 0 11 12 1 9 -7 14 -17 11 -21
-3 -5 1 -11 7 -13 10 -4 9 -6 -1 -6 -8 -1 -4 -9 12 -21 31 -25 46 -26 20 -2
-10 9 -12 13 -4 7 8 -5 2 8 -14 30 l-30 39 34 -24 c19 -13 31 -17 26 -9 -7 12
-6 11 10 -1 17 -13 18 -13 10 0 -7 13 -6 13 7 2 13 -10 17 -10 23 5 5 10 9 22
9 27 1 5 8 11 16 13 9 3 11 1 5 -4 -14 -11 -17 -33 -5 -33 6 0 10 4 10 9 0 15
32 23 44 11 8 -8 5 -9 -9 -5 -16 6 -17 5 -5 -4 21 -15 33 -13 26 4 -4 12 -2
13 12 6 18 -9 24 -11 45 -11 8 0 7 -4 -3 -10 -11 -8 -7 -9 16 -5 22 3 36 0 45
-12 12 -15 12 -16 -1 -8 -13 8 -13 7 -1 -8 17 -21 36 -17 36 8 0 10 8 19 18
21 15 2 16 0 6 -12 -10 -12 -10 -17 0 -27 10 -9 11 -8 6 4 -4 10 -2 20 4 24 7
4 8 0 4 -11 -5 -14 -3 -16 11 -11 9 4 15 3 11 -2 -3 -5 1 -12 7 -15 7 -3 2 -3
-12 0 -21 4 -22 3 -7 -6 9 -6 22 -8 29 -4 7 5 8 3 3 -6 -5 -8 -4 -11 1 -7 6 3
16 1 24 -5 12 -8 12 -9 -3 -4 -12 4 -16 2 -11 -7 5 -9 4 -9 -7 1 -7 6 -18 12
-24 12 -5 0 -1 -7 10 -16 20 -15 20 -15 -5 -35 -15 -11 -18 -17 -7 -13 10 4
17 1 17 -6 0 -6 -4 -9 -9 -5 -5 3 -12 1 -16 -4 -3 -6 -12 -8 -19 -5 -7 3 -19
-3 -27 -13 -13 -17 -13 -17 5 -3 12 9 17 10 12 3 -5 -9 -2 -11 8 -7 19 7 21
-7 4 -25 -10 -11 -10 -12 -1 -7 9 5 11 2 7 -8 -5 -13 -9 -12 -25 7 -10 12 -18
17 -19 12 0 -6 5 -16 11 -22 7 -7 7 -13 0 -17 -5 -4 -8 -13 -5 -21 4 -8 -1
-18 -10 -21 -12 -5 -14 -10 -6 -19 12 -15 -5 -16 -27 -2 -7 5 -13 4 -13 -2 0
-5 5 -13 10 -16 8 -5 7 -11 -1 -21 -15 -19 -33 -18 -25 2 4 10 2 13 -7 8 -9
-5 -9 -4 1 7 15 16 16 29 1 29 -5 0 -8 -4 -4 -9 3 -5 1 -12 -5 -16 -6 -4 -8
-11 -5 -16 6 -9 -33 -67 -41 -61 -11 6 -15 1 -7 -10 13 -16 13 -48 1 -48 -5 0
-6 10 -2 22 6 20 5 21 -9 9 -9 -7 -15 -17 -12 -21 3 -5 1 -11 -5 -15 -6 -4 -7
-12 -3 -18 5 -8 2 -8 -9 0 -8 7 -19 9 -24 5 -5 -4 0 4 11 17 11 14 14 21 8 17
-9 -5 -11 -2 -7 11 5 15 4 16 -5 3 -9 -13 -11 -13 -11 0 0 13 -1 13 -10 0 -7
-11 -10 -11 -10 -2 0 7 -4 11 -9 8 -5 -3 -14 1 -21 9 -9 11 -9 15 -1 15 7 0 9
5 5 11 -4 8 -9 7 -16 -2 -7 -11 -8 -10 -4 4 4 12 2 16 -6 11 -7 -5 -8 -3 -3 6
5 9 4 11 -3 6 -8 -5 -10 -1 -6 11 3 10 -1 7 -9 -6 -8 -14 -17 -19 -21 -13 -3
6 0 12 6 15 10 3 10 8 -1 18 -8 8 -11 9 -7 2 7 -13 -19 -12 -31 2 -4 4 -3 5 4
1 6 -3 14 -2 18 4 6 9 -8 14 -28 11 -5 -1 -5 3 -2 9 5 8 15 6 31 -5 22 -14 28
-12 25 8 -1 7 15 11 32 8 5 -1 5 4 1 10 -4 7 -3 9 2 6 5 -3 10 3 10 13 0 10
-5 16 -11 14 -5 -3 -1 2 9 10 11 9 15 16 9 16 -7 0 -14 -4 -18 -10 -3 -5 -12
-7 -20 -4 -12 5 -10 10 8 25 12 10 17 18 12 19 -6 0 -17 -6 -24 -12 -8 -7 -6
-1 4 15 9 15 19 27 22 27 2 0 1 -5 -3 -11 -4 -8 1 -7 17 1 23 11 23 10 5 -4
-14 -12 -16 -16 -5 -16 11 0 11 -2 1 -9 -11 -7 -10 -9 3 -14 10 -5 14 -3 9 5
-4 7 -3 8 4 4 7 -4 10 1 7 14 -3 14 0 18 8 14 9 -5 9 -4 0 6 -6 7 -9 19 -6 26
6 17 -6 18 -27 3 -12 -9 -11 -10 5 -4 16 5 17 4 8 -6 -10 -10 -16 -9 -29 2
-11 9 -15 9 -10 2 5 -9 2 -11 -9 -6 -13 5 -14 7 -3 14 10 7 10 9 -2 9 -9 0
-11 3 -5 8 13 9 18 32 7 32 -4 0 -14 -6 -21 -12 -11 -11 -12 -10 -6 1 6 10 4
12 -5 6 -9 -6 -11 -4 -5 6 6 11 5 12 -6 1 -11 -10 -10 -15 8 -27 17 -12 24
-39 13 -52 -7 -8 -5 -30 3 -40 5 -7 6 -13 3 -13 -4 0 -2 -9 4 -20 13 -24 -6
-72 -20 -50 -4 6 -11 12 -16 13 -5 1 -8 10 -8 19 1 10 -2 15 -7 13 -4 -3 -15
5 -23 17 -9 12 -16 20 -17 18 0 -3 -2 -13 -4 -23 -2 -13 1 -17 11 -13 8 3 12
2 9 -3 -3 -6 -14 -9 -25 -8 -14 1 -16 4 -8 14 8 10 6 13 -5 13 -27 0 -27 -16
0 -41 14 -13 23 -18 19 -11 -4 6 -3 12 3 12 11 0 24 -19 28 -39 1 -8 32 -44
69 -80 36 -36 64 -60 60 -53 -4 6 -3 12 3 12 11 0 24 -19 28 -39 1 -8 12 -25
25 -37 21 -20 25 -21 42 -9 11 8 16 18 12 22 -4 4 -11 2 -15 -6 -7 -10 -10 -9
-14 3 -4 10 2 22 18 32 14 9 23 20 20 24 -8 12 21 44 34 36 6 -4 9 -11 6 -16
-11 -19 14 -19 37 0 14 11 29 16 34 12 5 -4 2 1 -5 10 -7 10 -16 16 -20 14 -4
-3 -13 -1 -21 4 -9 5 -19 5 -27 -2 -22 -18 -29 1 -8 20 18 16 18 16 5 -3 -10
-15 -11 -17 -1 -8 7 6 19 9 26 7 7 -3 17 1 21 8 9 13 10 18 13 38 0 6 7 9 14
8 6 -2 11 3 9 10 -1 6 2 12 8 12 6 0 9 3 9 8 -3 20 3 33 25 47 30 20 76 29 76
15 0 -5 4 -10 8 -10 5 0 9 7 9 15 0 8 -4 12 -8 9 -4 -2 -14 5 -22 17 l-15 21
-7 -21 c-8 -26 -20 -27 -22 -2 -1 11 6 26 15 33 9 8 13 8 9 1 -4 -7 -1 -10 8
-9 21 3 31 16 12 16 -10 0 -17 5 -17 12 0 6 3 8 7 5 3 -4 12 -2 19 4 10 9 15
7 20 -5 3 -9 10 -13 15 -10 5 3 6 10 3 16 -4 7 -2 8 5 4 6 -4 8 -12 5 -18 -5
-7 -2 -8 6 -3 8 5 11 4 6 -3 -3 -6 -2 -13 4 -17 5 -3 8 -16 6 -28 -3 -12 -5
-26 -5 -30 -1 -5 -5 -6 -10 -3 -4 3 -16 0 -26 -8 -15 -11 -16 -13 -1 -13 9 0
16 5 16 10 0 5 6 4 14 -2 10 -8 16 -8 25 3 17 20 23 63 11 71 -6 4 -7 11 -4
17 4 6 3 9 -2 6 -11 -7 -35 17 -26 27 4 4 3 5 -3 4 -11 -4 -84 67 -79 76 2 3
1 3 -2 0 -4 -2 -18 10 -33 29 -14 18 -32 31 -40 28 -8 -3 -11 0 -8 5 4 6 -4
20 -17 32 -17 16 -26 19 -31 11 -4 -7 -2 -16 4 -20 9 -5 8 -10 -3 -19 -18 -15
-40 -5 -29 12 4 7 -1 6 -10 -2 -15 -12 -19 -12 -31 4 -9 13 -15 15 -20 6 -4
-6 -13 -8 -19 -4 -6 4 -24 7 -39 8 -14 1 -34 7 -42 14 -13 11 -15 10 -11 -7z
m241 -37 c-1 -8 -5 -17 -8 -21 -4 -3 -4 -12 -1 -20 3 -8 -1 -14 -8 -14 -7 0
-9 3 -6 7 4 3 0 14 -8 23 -14 15 -14 18 0 30 12 10 13 16 3 29 -9 12 -7 11 9
-2 11 -10 20 -25 19 -32z m-305 20 c3 2 6 -6 6 -18 2 -17 0 -19 -7 -7 -5 8
-10 11 -10 6 0 -5 -6 -3 -13 3 -8 6 -18 7 -23 3 -4 -4 -2 1 5 11 10 12 17 14
26 7 6 -5 14 -8 16 -5z m64 -25 c-3 -5 -12 -10 -18 -10 -7 0 -6 4 3 10 19 12
23 12 15 0z m376 -121 c8 -15 8 -19 0 -15 -6 4 -17 4 -23 -1 -7 -4 -19 -8 -26
-9 -11 -2 -11 1 0 14 12 15 30 31 35 32 1 0 7 -10 14 -21z m-615 -41 c0 -28
-2 -46 -4 -40 -2 7 -7 10 -11 7 -5 -2 -19 7 -31 20 -13 14 -18 25 -11 25 7 0
9 5 5 12 -4 6 -3 8 4 4 6 -3 13 -2 17 4 4 6 11 8 16 5 5 -4 9 -1 9 4 0 6 1 11
3 11 1 0 3 -23 3 -52z m679 -56 c-2 -14 -10 -30 -16 -36 -9 -8 -10 -8 -5 1 14
25 15 57 3 72 -11 14 -10 14 5 2 12 -9 16 -22 13 -39z m-495 18 c-12 -22 -21
-26 -17 -7 2 10 17 26 25 27 1 0 -2 -9 -8 -20z m14 -90 c-6 -6 -10 -3 -10 10
0 13 4 16 10 10 7 -7 7 -13 0 -20z m-78 -6 c2 -12 -1 -13 -12 -3 -7 6 -11 16
-8 21 7 11 17 3 20 -18z m93 -127 l25 -32 -32 29 c-33 31 -37 36 -24 35 4 0
18 -14 31 -32z m236 11 c5 4 5 2 1 -5 -4 -7 -14 -9 -23 -6 -10 4 -14 2 -9 -5
3 -6 1 -14 -5 -18 -7 -4 -9 -3 -5 4 3 6 2 13 -4 17 -18 11 0 26 19 15 10 -5
22 -6 26 -2z m-75 -4 c0 -8 -19 -13 -24 -6 -3 5 1 9 9 9 8 0 15 -2 15 -3z
m-56 -110 c7 -19 2 -18 -19 6 -16 17 -16 20 -3 15 9 -4 19 -13 22 -21z"/>
<path d="M2551 1566 c-8 -10 -9 -16 -1 -21 5 -3 10 -5 11 -3 4 18 7 38 4 38
-1 0 -8 -6 -14 -14z"/>
<path d="M2679 1433 c-13 -16 -12 -17 4 -4 16 13 21 21 13 21 -2 0 -10 -8 -17
-17z"/>
<path d="M2060 1415 c-10 -12 -10 -18 0 -30 7 -9 15 -13 18 -10 10 10 10 35 1
35 -6 0 -7 5 -4 10 9 15 -1 12 -15 -5z m14 -21 c3 -8 2 -12 -4 -9 -6 3 -10 10
-10 16 0 14 7 11 14 -7z"/>
<path d="M2375 1549 c-4 -6 -13 -8 -20 -5 -9 3 -11 -2 -8 -17 4 -18 3 -19 -6
-7 -10 13 -11 13 -11 0 0 -13 -1 -13 -11 0 -8 12 -10 12 -7 1 6 -20 36 -22 48
-3 7 13 9 14 10 3 0 -11 3 -10 13 3 11 15 18 16 34 8 11 -6 24 -8 28 -4 5 4 5
1 0 -7 -6 -10 -4 -12 5 -6 8 5 11 4 7 -1 -3 -6 4 -11 16 -11 15 -2 18 0 9 6
-11 6 -10 10 4 15 10 4 15 4 11 0 -4 -4 -1 -14 5 -23 7 -9 9 -13 4 -9 -15 12
-46 -11 -40 -30 4 -11 -1 -8 -15 8 l-21 25 4 -29 c5 -31 16 -48 16 -26 0 9 5
8 13 -5 8 -10 19 -15 25 -11 6 3 13 2 17 -4 3 -5 11 -10 18 -10 6 0 2 7 -9 16
-10 8 -14 13 -8 10 6 -3 11 1 11 9 0 8 -5 11 -11 8 -7 -4 -7 -2 0 6 17 19 47
20 67 3 18 -16 24 -3 7 14 -7 7 -6 11 4 11 8 0 13 -4 10 -9 -3 -4 -1 -8 5 -8
10 0 9 -19 -2 -37 -5 -8 -3 -13 4 -13 7 0 9 -3 6 -6 -4 -4 -14 -1 -24 7 -14
12 -16 12 -8 0 6 -10 4 -12 -5 -6 -9 6 -11 4 -5 -6 7 -11 5 -11 -10 1 -15 12
-17 12 -10 1 6 -10 4 -12 -5 -6 -9 5 -11 4 -6 -3 5 -8 1 -10 -11 -6 -16 6 -15
4 2 -10 11 -10 13 -14 5 -10 -13 7 -13 6 0 -12 14 -18 14 -18 -5 -4 -16 11
-17 11 -7 0 16 -19 15 -33 -2 -27 -10 4 -13 1 -9 -9 4 -12 8 -12 21 -2 13 11
14 11 7 -1 -6 -10 -4 -12 6 -6 8 5 11 5 7 0 -4 -4 -3 -14 4 -22 9 -11 8 -13
-3 -11 -8 2 -13 -3 -11 -10 1 -8 -2 -11 -8 -7 -6 4 -9 10 -6 13 7 7 -13 32
-26 32 -6 0 -5 -7 2 -15 18 -21 6 -29 -20 -15 -18 10 -21 9 -15 -1 6 -8 4 -10
-5 -4 -9 6 -11 4 -5 -4 6 -10 3 -11 -15 -1 -25 13 -22 2 8 -32 13 -16 13 -18
-2 -24 -9 -3 -16 -10 -16 -15 0 -11 22 -7 33 6 5 6 7 4 4 -5 -2 -8 -9 -15 -16
-15 -7 0 -19 -9 -27 -19 -8 -11 -14 -14 -14 -7 0 7 -5 9 -10 6 -6 -4 -7 -11
-4 -17 4 -7 2 -8 -5 -4 -6 4 -9 12 -6 17 4 5 1 9 -5 9 -7 0 -10 -7 -6 -15 4
-13 2 -14 -14 -5 -11 6 -20 13 -20 16 0 3 5 2 12 -2 7 -5 8 -3 3 6 -6 9 -4 11
5 5 9 -5 11 -4 6 3 -5 8 -1 10 11 6 15 -5 15 -4 3 4 -8 6 -18 8 -22 6 -4 -3
-8 0 -8 6 0 7 7 10 18 6 14 -5 14 -4 -2 9 -11 8 -15 15 -10 15 6 0 14 -3 20
-7 5 -5 -2 2 -16 14 -14 13 -21 23 -16 23 5 0 2 8 -5 17 -8 9 -9 14 -3 10 7
-4 17 0 24 8 9 11 9 15 1 15 -7 0 -9 5 -5 11 5 8 9 8 14 -1 5 -9 9 -9 14 -1 4
6 2 11 -3 11 -6 0 -11 5 -11 11 0 8 5 7 15 -1 13 -11 18 -11 28 0 10 10 9 12
-5 7 -21 -7 -31 3 -17 19 9 10 7 15 -5 20 -9 3 -16 11 -16 17 0 6 3 7 7 4 3
-4 13 -1 22 6 14 11 15 10 1 -7 -14 -18 -14 -18 7 -6 l22 14 -32 23 c-38 28
-40 29 -27 1 10 -21 10 -22 -3 -5 -8 10 -17 14 -18 10 -2 -4 -15 2 -29 15 -16
15 -18 21 -7 16 10 -3 17 -1 17 5 0 6 -5 10 -12 9 -11 -3 -13 2 -17 34 0 6 -4
8 -8 5 -3 -4 -13 -1 -22 6 -8 6 -5 -1 7 -17 30 -39 14 -55 -26 -26 -20 15 -29
29 -27 42 2 10 0 16 -5 13 -4 -3 -7 -13 -5 -23 1 -9 -7 -30 -17 -45 -17 -24
-22 -26 -36 -15 -10 7 -14 8 -9 3 4 -4 0 -16 -9 -26 -15 -16 -14 -17 8 -15 18
2 24 -2 25 -18 1 -12 -1 -15 -4 -8 -3 6 -10 12 -16 12 -5 0 -7 -3 -4 -7 4 -3
2 -12 -4 -19 -6 -8 -6 -14 0 -18 17 -11 38 5 37 27 -1 12 2 27 6 33 5 7 11 22
13 34 7 38 16 37 11 0 -5 -30 -4 -32 5 -15 17 28 16 28 31 19 7 -5 20 -9 28
-9 9 0 15 -10 15 -25 1 -25 23 -30 36 -9 3 6 11 3 19 -6 7 -8 10 -18 7 -22 -4
-3 -2 -13 5 -20 9 -11 9 -17 -3 -24 -8 -5 -10 -9 -6 -9 5 0 -1 -12 -12 -27
-13 -15 -19 -34 -16 -45 6 -16 -2 -22 -26 -20 -3 0 -10 -7 -16 -17 -9 -14 -7
-17 8 -18 10 -1 18 3 16 9 -1 6 4 12 11 14 7 1 8 0 2 -3 -7 -3 -4 -10 7 -18
15 -11 16 -16 5 -27 -11 -11 -12 -10 -7 5 4 9 3 17 -3 17 -20 0 -21 -17 -2
-35 10 -9 16 -23 14 -30 -4 -9 4 -12 26 -10 19 2 34 -3 37 -11 4 -10 8 -10 18
-1 7 7 11 14 10 17 -5 9 7 23 30 36 12 7 19 20 18 33 -2 12 3 21 10 21 8 0 7
4 -3 10 -16 10 -18 10 30 15 8 1 21 -4 29 -9 11 -8 13 -8 7 2 -4 7 -1 15 9 18
9 4 14 13 11 20 -3 7 -1 16 5 20 7 4 7 10 0 18 -20 24 9 82 36 72 8 -3 11 -2
8 3 -3 5 4 16 15 24 18 12 19 16 5 27 -8 7 -12 17 -8 24 3 6 3 8 -2 4 -5 -5
-15 1 -23 13 -11 16 -17 18 -28 8 -11 -9 -19 -8 -34 6 -11 10 -17 21 -15 26 3
4 -9 7 -27 6 -20 -1 -32 2 -31 10 3 12 -14 12 -34 0 -7 -4 -21 -3 -32 3 -14 7
-22 7 -26 -1z m86 -16 c12 -16 12 -17 -2 -6 -9 7 -20 9 -24 5 -5 -4 -5 -1 -1
6 9 16 11 15 27 -5z m75 -35 c10 -12 14 -19 8 -15 -13 8 -56 -21 -49 -33 6
-10 -14 -25 -22 -16 -3 3 0 12 7 21 10 12 10 15 0 15 -20 0 -6 10 20 15 25 5
40 15 22 15 -7 0 -12 5 -12 10 0 15 5 12 26 -12z m-270 -29 c3 -6 -5 -3 -20 6
-14 10 -26 19 -26 22 0 7 39 -17 46 -28z m64 -30 c0 -4 -6 -12 -14 -18 -12
-10 -14 -9 -11 6 1 10 -3 24 -9 32 -9 12 -8 12 12 0 12 -8 22 -17 22 -20z
m-137 6 c-3 -9 -8 -14 -10 -11 -3 3 -2 9 2 15 9 16 15 13 8 -4z m431 -15 c-6
-6 -10 -3 -10 10 0 13 4 16 10 10 7 -7 7 -13 0 -20z m-229 1 c3 -5 2 -12 -3
-15 -5 -3 -9 1 -9 9 0 17 3 19 12 6z m180 -41 c-22 -25 -28 -50 -14 -66 7 -8
6 -15 -2 -20 -7 -4 -9 -3 -5 4 3 6 2 13 -3 16 -13 8 -7 71 6 71 6 0 15 3 19 8
17 16 16 5 -1 -13z m-98 -131 c-10 -6 -14 -15 -10 -22 4 -7 0 -6 -10 2 -18 14
-23 26 -8 16 5 -3 12 -1 16 5 3 5 12 10 18 10 7 0 4 -5 -6 -11z m-131 -35 c1
-9 0 -13 -4 -10 -3 4 -7 14 -8 22 -1 9 0 13 4 10 3 -4 7 -14 8 -22z"/>
<path d="M2386 1514 c-3 -8 -10 -13 -15 -9 -5 3 -12 1 -16 -5 -4 -6 -10 -8
-14 -6 -6 4 -7 -20 -2 -43 1 -2 7 1 14 7 18 15 23 14 55 -16 28 -26 33 -54 9
-49 -6 1 -11 -2 -12 -8 0 -5 -4 -17 -10 -25 -7 -13 -6 -13 7 -2 13 10 17 10
21 -2 3 -8 -10 -26 -34 -46 -22 -18 -38 -35 -34 -38 3 -4 10 -1 14 7 6 10 10
9 15 -4 3 -10 11 -13 18 -9 7 4 9 3 5 -1 -10 -12 -38 -15 -32 -4 4 5 -1 6 -9
3 -13 -5 -12 -9 8 -25 15 -12 22 -27 21 -43 -2 -17 1 -23 13 -21 10 1 16 10
14 19 -2 9 4 19 13 22 14 6 13 8 -3 23 -22 20 -22 47 0 43 9 -1 19 2 23 8 4 7
13 7 28 -1 20 -9 21 -9 4 4 -15 13 -16 15 -2 21 8 3 14 11 13 18 -2 7 3 12 10
10 9 -2 11 2 6 10 -5 7 -9 24 -9 38 0 15 -6 24 -14 22 -7 -1 -19 2 -25 8 -7 5
-15 7 -19 4 -3 -3 -10 4 -17 15 -6 12 -8 21 -4 21 3 0 1 6 -5 14 -9 10 -8 15
3 19 7 3 18 1 24 -5 6 -6 12 -5 17 4 5 7 5 10 0 6 -4 -4 -19 2 -33 12 -30 24
-38 25 -46 4z m25 -18 c-6 -7 -8 -16 -4 -20 11 -10 12 -37 2 -30 -5 3 -7 8 -5
12 2 4 -2 12 -9 19 -10 9 -14 10 -17 1 -3 -7 -7 -5 -11 6 -4 9 -3 15 2 12 5
-3 14 1 21 9 7 8 16 12 22 9 5 -4 5 -11 -1 -18z m44 -110 c-13 -20 -13 -23 0
-23 8 0 12 3 10 7 -3 4 4 15 14 25 17 14 19 14 17 1 -1 -8 -5 -19 -9 -22 -12
-12 -8 -26 5 -18 7 4 8 3 4 -4 -4 -6 -14 -9 -24 -6 -16 5 -16 5 0 -8 15 -13
15 -15 -5 -29 -12 -7 -26 -14 -32 -14 -5 0 -16 -4 -23 -9 -8 -5 -18 -4 -23 1
-6 6 5 20 31 38 41 28 50 38 27 30 -6 -3 -18 4 -25 15 -7 11 -9 20 -5 19 17
-3 33 1 32 9 -3 16 2 23 11 17 6 -4 4 -15 -5 -29z m-34 -153 c7 -7 4 -14 -8
-24 -10 -7 -15 -9 -10 -4 4 4 0 16 -9 26 -14 16 -14 17 0 15 9 -1 21 -7 27
-13z"/>
<path d="M2420 1315 c-19 -14 -29 -25 -23 -25 7 0 14 4 18 10 3 5 12 7 19 4
15 -6 41 22 28 30 -5 3 -24 -6 -42 -19z"/>
<path d="M2527 1456 c-9 -23 14 -38 38 -26 3 1 9 3 14 4 5 0 12 4 15 9 3 4 3
5 -1 2 -3 -3 -13 1 -21 7 -20 17 -40 18 -45 4z m38 -5 c3 -5 2 -12 -3 -15 -5
-3 -9 1 -9 9 0 17 3 19 12 6z"/>
<path d="M2694 1398 c3 -10 1 -20 -5 -24 -14 -8 -6 -29 12 -29 8 -1 13 -6 12
-13 -2 -7 0 -12 5 -12 12 0 27 14 30 29 3 16 -17 43 -29 36 -4 -3 -13 3 -19
12 -10 16 -11 16 -6 1z m9 -33 c-3 -9 -8 -14 -10 -11 -3 3 -2 9 2 15 9 16 15
13 8 -4z m30 -16 c-8 -8 -13 -7 -18 2 -6 8 -4 10 5 4 10 -6 12 -4 6 11 -6 15
-5 17 5 7 9 -10 10 -16 2 -24z"/>
<path d="M2586 1348 c3 -5 10 -6 15 -3 13 9 11 12 -6 12 -8 0 -12 -4 -9 -9z"/>
<path d="M2513 1215 c0 -8 4 -12 9 -9 5 3 6 10 3 15 -9 13 -12 11 -12 -6z"/>
</g>
</svg>
